<mxfile host="app.diagrams.net" agent="Mozilla/5.0 (Windows NT 10.0; Win64; x64; rv:136.0) Gecko/20100101 Firefox/136.0" version="26.1.3" pages="5">
  <diagram name="arch" id="B5M-bgRcvWeri35WorwF">
    <mxGraphModel dx="1298" dy="1133" grid="1" gridSize="10" guides="1" tooltips="1" connect="1" arrows="1" fold="1" page="1" pageScale="1" pageWidth="1100" pageHeight="850" math="0" shadow="0">
      <root>
        <mxCell id="0" />
        <mxCell id="1" parent="0" />
        <mxCell id="3DB2nRaoyDR9YqysZsZi-1" value="&lt;div&gt;&lt;br&gt;&lt;/div&gt;&lt;div&gt;TDengine&lt;/div&gt;" style="rounded=0;whiteSpace=wrap;html=1;fontFamily=Ubuntu;fontSource=https%3A%2F%2Ffonts.googleapis.com%2Fcss%3Ffamily%3DUbuntu;verticalAlign=top;" parent="1" vertex="1">
          <mxGeometry x="30" y="104" width="230" height="210" as="geometry" />
        </mxCell>
        <mxCell id="3DB2nRaoyDR9YqysZsZi-4" style="edgeStyle=orthogonalEdgeStyle;rounded=0;orthogonalLoop=1;jettySize=auto;html=1;exitX=1;exitY=0.5;exitDx=0;exitDy=0;exitPerimeter=0;entryX=0;entryY=0.5;entryDx=0;entryDy=0;endArrow=block;endFill=1;strokeColor=#666666;" parent="1" source="3DB2nRaoyDR9YqysZsZi-2" target="3DB2nRaoyDR9YqysZsZi-3" edge="1">
          <mxGeometry relative="1" as="geometry" />
        </mxCell>
        <mxCell id="3DB2nRaoyDR9YqysZsZi-2" value="&lt;div&gt;TDengine&amp;nbsp;&lt;/div&gt;&lt;div&gt;Database&lt;/div&gt;" style="shape=cylinder3;whiteSpace=wrap;html=1;boundedLbl=1;backgroundOutline=1;size=11.33331298828125;fillColor=#fff2cc;strokeColor=#d6b656;fontFamily=Ubuntu;fontSource=https%3A%2F%2Ffonts.googleapis.com%2Fcss%3Ffamily%3DUbuntu;" parent="1" vertex="1">
          <mxGeometry x="50" y="154" width="80" height="140" as="geometry" />
        </mxCell>
        <mxCell id="3DB2nRaoyDR9YqysZsZi-3" value="&lt;div&gt;taos adapter&lt;/div&gt;&lt;div&gt;--&lt;/div&gt;&lt;div&gt;websocket APIs&lt;/div&gt;" style="rounded=0;whiteSpace=wrap;html=1;fontFamily=Ubuntu;fontSource=https%3A%2F%2Ffonts.googleapis.com%2Fcss%3Ffamily%3DUbuntu;fillColor=#e1d5e7;strokeColor=#9673a6;" parent="1" vertex="1">
          <mxGeometry x="160" y="154" width="80" height="140" as="geometry" />
        </mxCell>
        <mxCell id="3DB2nRaoyDR9YqysZsZi-5" value="&lt;div&gt;Pserspective Node&lt;/div&gt;&lt;div&gt;Websocket Server&lt;/div&gt;" style="rounded=0;whiteSpace=wrap;html=1;fontFamily=Ubuntu;fontSource=https%3A%2F%2Ffonts.googleapis.com%2Fcss%3Ffamily%3DUbuntu;verticalAlign=top;" parent="1" vertex="1">
          <mxGeometry x="330" y="104" width="230" height="210" as="geometry" />
        </mxCell>
        <mxCell id="3DB2nRaoyDR9YqysZsZi-6" value="Node" style="rounded=0;whiteSpace=wrap;html=1;fontFamily=Ubuntu;fontSource=https%3A%2F%2Ffonts.googleapis.com%2Fcss%3Ffamily%3DUbuntu;fillColor=#e1d5e7;strokeColor=#9673a6;" parent="1" vertex="1">
          <mxGeometry x="340" y="264" width="210" height="35" as="geometry" />
        </mxCell>
        <mxCell id="3DB2nRaoyDR9YqysZsZi-7" value="Perspective Websocket" style="rounded=0;whiteSpace=wrap;html=1;fontFamily=Ubuntu;fontSource=https%3A%2F%2Ffonts.googleapis.com%2Fcss%3Ffamily%3DUbuntu;fillColor=#e1d5e7;strokeColor=#9673a6;" parent="1" vertex="1">
          <mxGeometry x="340" y="219" width="210" height="35" as="geometry" />
        </mxCell>
        <mxCell id="3DB2nRaoyDR9YqysZsZi-8" value="Perspective real-time Table" style="rounded=0;whiteSpace=wrap;html=1;fontFamily=Ubuntu;fontSource=https%3A%2F%2Ffonts.googleapis.com%2Fcss%3Ffamily%3DUbuntu;fillColor=#e1d5e7;strokeColor=#9673a6;" parent="1" vertex="1">
          <mxGeometry x="340" y="174" width="210" height="35" as="geometry" />
        </mxCell>
        <mxCell id="3DB2nRaoyDR9YqysZsZi-9" value="&lt;div&gt;Client&lt;/div&gt;&lt;div&gt;Browser&lt;/div&gt;" style="rounded=0;whiteSpace=wrap;html=1;fontFamily=Ubuntu;fontSource=https%3A%2F%2Ffonts.googleapis.com%2Fcss%3Ffamily%3DUbuntu;verticalAlign=top;" parent="1" vertex="1">
          <mxGeometry x="630" y="104" width="190" height="210" as="geometry" />
        </mxCell>
        <mxCell id="3DB2nRaoyDR9YqysZsZi-10" value="HTML Page" style="rounded=0;whiteSpace=wrap;html=1;fontFamily=Ubuntu;fontSource=https%3A%2F%2Ffonts.googleapis.com%2Fcss%3Ffamily%3DUbuntu;fillColor=#fff2cc;strokeColor=#d6b656;verticalAlign=top;" parent="1" vertex="1">
          <mxGeometry x="640" y="164" width="170" height="140" as="geometry" />
        </mxCell>
        <mxCell id="3DB2nRaoyDR9YqysZsZi-11" value="&amp;lt;perspective-viewer&amp;gt;" style="rounded=0;whiteSpace=wrap;html=1;fontFamily=Ubuntu;fontSource=https%3A%2F%2Ffonts.googleapis.com%2Fcss%3Ffamily%3DUbuntu;fillColor=#e1d5e7;strokeColor=#9673a6;" parent="1" vertex="1">
          <mxGeometry x="650" y="219" width="150" height="35" as="geometry" />
        </mxCell>
        <mxCell id="3DB2nRaoyDR9YqysZsZi-16" value="" style="image;points=[];aspect=fixed;html=1;align=center;shadow=0;dashed=0;image=img/lib/allied_telesis/computer_and_terminals/Personal_Computer_with_Server.svg;" parent="1" vertex="1">
          <mxGeometry x="780" y="90" width="54" height="54" as="geometry" />
        </mxCell>
        <mxCell id="3DB2nRaoyDR9YqysZsZi-19" value="" style="html=1;shadow=0;dashed=0;align=center;verticalAlign=middle;shape=mxgraph.arrows2.arrow;dy=0.26;dx=17.33;notch=0;fillColor=#dae8fc;strokeColor=#6c8ebf;" parent="1" vertex="1">
          <mxGeometry x="270" y="174" width="50" height="70" as="geometry" />
        </mxCell>
        <mxCell id="3DB2nRaoyDR9YqysZsZi-20" value="" style="html=1;shadow=0;dashed=0;align=center;verticalAlign=middle;shape=mxgraph.arrows2.arrow;dy=0.26;dx=17.33;notch=0;fillColor=#dae8fc;strokeColor=#6c8ebf;" parent="1" vertex="1">
          <mxGeometry x="570" y="169" width="50" height="70" as="geometry" />
        </mxCell>
        <mxCell id="3DB2nRaoyDR9YqysZsZi-21" value="" style="image;points=[];aspect=fixed;html=1;align=center;shadow=0;dashed=0;image=img/lib/allied_telesis/computer_and_terminals/Server_Desktop.svg;" parent="1" vertex="1">
          <mxGeometry x="227.4" y="90" width="42.599999999999994" height="54" as="geometry" />
        </mxCell>
        <mxCell id="3DB2nRaoyDR9YqysZsZi-22" value="" style="image;points=[];aspect=fixed;html=1;align=center;shadow=0;dashed=0;image=img/lib/allied_telesis/computer_and_terminals/Server_Desktop.svg;" parent="1" vertex="1">
          <mxGeometry x="527.4" y="90" width="42.599999999999994" height="54" as="geometry" />
        </mxCell>
        <mxCell id="3DB2nRaoyDR9YqysZsZi-24" value="node src/server.js" style="text;html=1;align=left;verticalAlign=middle;whiteSpace=wrap;rounded=0;fontFamily=Ubuntu;fontSource=https%3A%2F%2Ffonts.googleapis.com%2Fcss%3Ffamily%3DUbuntu;" parent="1" vertex="1">
          <mxGeometry x="330" y="314" width="190" height="30" as="geometry" />
        </mxCell>
        <mxCell id="3DB2nRaoyDR9YqysZsZi-25" value="chrome: index.html" style="text;html=1;align=left;verticalAlign=middle;whiteSpace=wrap;rounded=0;fontFamily=Ubuntu;fontSource=https%3A%2F%2Ffonts.googleapis.com%2Fcss%3Ffamily%3DUbuntu;" parent="1" vertex="1">
          <mxGeometry x="630" y="314" width="190" height="30" as="geometry" />
        </mxCell>
        <mxCell id="8I0lUVkUVdQcSRx0W5oF-1" value="&lt;div&gt;&lt;br&gt;&lt;/div&gt;&lt;div&gt;TDengine&lt;/div&gt;" style="rounded=0;whiteSpace=wrap;html=1;fontFamily=Ubuntu;fontSource=https%3A%2F%2Ffonts.googleapis.com%2Fcss%3Ffamily%3DUbuntu;verticalAlign=top;" vertex="1" parent="1">
          <mxGeometry x="30" y="454" width="230" height="210" as="geometry" />
        </mxCell>
        <mxCell id="8I0lUVkUVdQcSRx0W5oF-2" style="edgeStyle=orthogonalEdgeStyle;rounded=0;orthogonalLoop=1;jettySize=auto;html=1;exitX=1;exitY=0.5;exitDx=0;exitDy=0;exitPerimeter=0;entryX=0;entryY=0.5;entryDx=0;entryDy=0;endArrow=block;endFill=1;strokeColor=#666666;" edge="1" parent="1" source="8I0lUVkUVdQcSRx0W5oF-3" target="8I0lUVkUVdQcSRx0W5oF-4">
          <mxGeometry relative="1" as="geometry" />
        </mxCell>
        <mxCell id="8I0lUVkUVdQcSRx0W5oF-3" value="&lt;div&gt;TDengine&amp;nbsp;&lt;/div&gt;&lt;div&gt;Database&lt;/div&gt;" style="shape=cylinder3;whiteSpace=wrap;html=1;boundedLbl=1;backgroundOutline=1;size=11.33331298828125;fillColor=#fff2cc;strokeColor=#d6b656;fontFamily=Ubuntu;fontSource=https%3A%2F%2Ffonts.googleapis.com%2Fcss%3Ffamily%3DUbuntu;" vertex="1" parent="1">
          <mxGeometry x="50" y="504" width="80" height="140" as="geometry" />
        </mxCell>
        <mxCell id="8I0lUVkUVdQcSRx0W5oF-4" value="&lt;div&gt;taos adapter&lt;/div&gt;" style="rounded=0;whiteSpace=wrap;html=1;fontFamily=Ubuntu;fontSource=https%3A%2F%2Ffonts.googleapis.com%2Fcss%3Ffamily%3DUbuntu;fillColor=#e1d5e7;strokeColor=#9673a6;" vertex="1" parent="1">
          <mxGeometry x="160" y="504" width="80" height="140" as="geometry" />
        </mxCell>
        <mxCell id="8I0lUVkUVdQcSRx0W5oF-5" value="&lt;div&gt;Pserspective Python&lt;/div&gt;&lt;div&gt;Websocket Server&lt;/div&gt;" style="rounded=0;whiteSpace=wrap;html=1;fontFamily=Ubuntu;fontSource=https%3A%2F%2Ffonts.googleapis.com%2Fcss%3Ffamily%3DUbuntu;verticalAlign=top;" vertex="1" parent="1">
          <mxGeometry x="330" y="454" width="230" height="210" as="geometry" />
        </mxCell>
        <mxCell id="8I0lUVkUVdQcSRx0W5oF-6" value="Tornado Server" style="rounded=0;whiteSpace=wrap;html=1;fontFamily=Ubuntu;fontSource=https%3A%2F%2Ffonts.googleapis.com%2Fcss%3Ffamily%3DUbuntu;fillColor=#e1d5e7;strokeColor=#9673a6;" vertex="1" parent="1">
          <mxGeometry x="340" y="614" width="210" height="35" as="geometry" />
        </mxCell>
        <mxCell id="8I0lUVkUVdQcSRx0W5oF-7" value="Perspective Websocket" style="rounded=0;whiteSpace=wrap;html=1;fontFamily=Ubuntu;fontSource=https%3A%2F%2Ffonts.googleapis.com%2Fcss%3Ffamily%3DUbuntu;fillColor=#e1d5e7;strokeColor=#9673a6;" vertex="1" parent="1">
          <mxGeometry x="340" y="569" width="210" height="35" as="geometry" />
        </mxCell>
        <mxCell id="8I0lUVkUVdQcSRx0W5oF-8" value="Perspective real-time Table" style="rounded=0;whiteSpace=wrap;html=1;fontFamily=Ubuntu;fontSource=https%3A%2F%2Ffonts.googleapis.com%2Fcss%3Ffamily%3DUbuntu;fillColor=#e1d5e7;strokeColor=#9673a6;" vertex="1" parent="1">
          <mxGeometry x="340" y="524" width="210" height="35" as="geometry" />
        </mxCell>
        <mxCell id="8I0lUVkUVdQcSRx0W5oF-9" value="&lt;div&gt;Client&lt;/div&gt;&lt;div&gt;Browser&lt;/div&gt;" style="rounded=0;whiteSpace=wrap;html=1;fontFamily=Ubuntu;fontSource=https%3A%2F%2Ffonts.googleapis.com%2Fcss%3Ffamily%3DUbuntu;verticalAlign=top;" vertex="1" parent="1">
          <mxGeometry x="630" y="454" width="190" height="210" as="geometry" />
        </mxCell>
        <mxCell id="8I0lUVkUVdQcSRx0W5oF-10" value="HTML Page" style="rounded=0;whiteSpace=wrap;html=1;fontFamily=Ubuntu;fontSource=https%3A%2F%2Ffonts.googleapis.com%2Fcss%3Ffamily%3DUbuntu;fillColor=#fff2cc;strokeColor=#d6b656;verticalAlign=top;" vertex="1" parent="1">
          <mxGeometry x="640" y="514" width="170" height="140" as="geometry" />
        </mxCell>
        <mxCell id="8I0lUVkUVdQcSRx0W5oF-11" value="&amp;lt;perspective-viewer&amp;gt;" style="rounded=0;whiteSpace=wrap;html=1;fontFamily=Ubuntu;fontSource=https%3A%2F%2Ffonts.googleapis.com%2Fcss%3Ffamily%3DUbuntu;fillColor=#e1d5e7;strokeColor=#9673a6;" vertex="1" parent="1">
          <mxGeometry x="650" y="569" width="150" height="35" as="geometry" />
        </mxCell>
        <mxCell id="8I0lUVkUVdQcSRx0W5oF-12" value="" style="image;points=[];aspect=fixed;html=1;align=center;shadow=0;dashed=0;image=img/lib/allied_telesis/computer_and_terminals/Personal_Computer_with_Server.svg;" vertex="1" parent="1">
          <mxGeometry x="780" y="440" width="54" height="54" as="geometry" />
        </mxCell>
        <mxCell id="8I0lUVkUVdQcSRx0W5oF-13" value="" style="html=1;shadow=0;dashed=0;align=center;verticalAlign=middle;shape=mxgraph.arrows2.arrow;dy=0.26;dx=17.33;notch=0;fillColor=#dae8fc;strokeColor=#6c8ebf;" vertex="1" parent="1">
          <mxGeometry x="270" y="524" width="50" height="70" as="geometry" />
        </mxCell>
        <mxCell id="8I0lUVkUVdQcSRx0W5oF-14" value="" style="html=1;shadow=0;dashed=0;align=center;verticalAlign=middle;shape=mxgraph.arrows2.arrow;dy=0.26;dx=17.33;notch=0;fillColor=#dae8fc;strokeColor=#6c8ebf;" vertex="1" parent="1">
          <mxGeometry x="570" y="519" width="50" height="70" as="geometry" />
        </mxCell>
        <mxCell id="8I0lUVkUVdQcSRx0W5oF-15" value="" style="image;points=[];aspect=fixed;html=1;align=center;shadow=0;dashed=0;image=img/lib/allied_telesis/computer_and_terminals/Server_Desktop.svg;" vertex="1" parent="1">
          <mxGeometry x="227.4" y="440" width="42.599999999999994" height="54" as="geometry" />
        </mxCell>
        <mxCell id="8I0lUVkUVdQcSRx0W5oF-16" value="" style="image;points=[];aspect=fixed;html=1;align=center;shadow=0;dashed=0;image=img/lib/allied_telesis/computer_and_terminals/Server_Desktop.svg;" vertex="1" parent="1">
          <mxGeometry x="529" y="440" width="42.599999999999994" height="54" as="geometry" />
        </mxCell>
        <mxCell id="8I0lUVkUVdQcSRx0W5oF-17" value="python server.py" style="text;html=1;align=left;verticalAlign=middle;whiteSpace=wrap;rounded=0;fontFamily=Ubuntu;fontSource=https%3A%2F%2Ffonts.googleapis.com%2Fcss%3Ffamily%3DUbuntu;" vertex="1" parent="1">
          <mxGeometry x="330" y="664" width="190" height="30" as="geometry" />
        </mxCell>
        <mxCell id="8I0lUVkUVdQcSRx0W5oF-18" value="chrome: index.html" style="text;html=1;align=left;verticalAlign=middle;whiteSpace=wrap;rounded=0;fontFamily=Ubuntu;fontSource=https%3A%2F%2Ffonts.googleapis.com%2Fcss%3Ffamily%3DUbuntu;" vertex="1" parent="1">
          <mxGeometry x="630" y="664" width="190" height="30" as="geometry" />
        </mxCell>
        <mxCell id="8I0lUVkUVdQcSRx0W5oF-19" value="TAOS :: Perspective - Node backend" style="text;html=1;align=left;verticalAlign=middle;whiteSpace=wrap;rounded=0;fontSize=26;fontFamily=Ubuntu;fontSource=https%3A%2F%2Ffonts.googleapis.com%2Fcss%3Ffamily%3DUbuntu;" vertex="1" parent="1">
          <mxGeometry x="30" y="30" width="790" height="30" as="geometry" />
        </mxCell>
        <mxCell id="8I0lUVkUVdQcSRx0W5oF-20" value="" style="endArrow=none;html=1;rounded=0;strokeWidth=2;" edge="1" parent="1">
          <mxGeometry width="50" height="50" relative="1" as="geometry">
            <mxPoint x="30" y="70" as="sourcePoint" />
            <mxPoint x="840" y="70" as="targetPoint" />
          </mxGeometry>
        </mxCell>
        <mxCell id="8I0lUVkUVdQcSRx0W5oF-25" value="TAOS :: Perspective - Python backend" style="text;html=1;align=left;verticalAlign=middle;whiteSpace=wrap;rounded=0;fontSize=26;fontFamily=Ubuntu;fontSource=https%3A%2F%2Ffonts.googleapis.com%2Fcss%3Ffamily%3DUbuntu;" vertex="1" parent="1">
          <mxGeometry x="20" y="380" width="790" height="30" as="geometry" />
        </mxCell>
        <mxCell id="8I0lUVkUVdQcSRx0W5oF-26" value="" style="endArrow=none;html=1;rounded=0;strokeWidth=2;" edge="1" parent="1">
          <mxGeometry width="50" height="50" relative="1" as="geometry">
            <mxPoint x="20" y="420" as="sourcePoint" />
            <mxPoint x="830" y="420" as="targetPoint" />
          </mxGeometry>
        </mxCell>
      </root>
    </mxGraphModel>
  </diagram>
  <diagram name="node" id="3eYLgNBxz53jWbyPCunL">
    <mxGraphModel dx="1298" dy="1133" grid="1" gridSize="10" guides="1" tooltips="1" connect="1" arrows="1" fold="1" page="1" pageScale="1" pageWidth="1100" pageHeight="850" math="0" shadow="0">
      <root>
        <mxCell id="9Z6j10TDqMImTO2T-C6I-0" />
        <mxCell id="9Z6j10TDqMImTO2T-C6I-1" parent="9Z6j10TDqMImTO2T-C6I-0" />
        <mxCell id="9Z6j10TDqMImTO2T-C6I-2" value="&lt;div&gt;&lt;br&gt;&lt;/div&gt;&lt;div&gt;TDengine&lt;/div&gt;" style="rounded=0;whiteSpace=wrap;html=1;fontFamily=Ubuntu;fontSource=https%3A%2F%2Ffonts.googleapis.com%2Fcss%3Ffamily%3DUbuntu;verticalAlign=top;" vertex="1" parent="9Z6j10TDqMImTO2T-C6I-1">
          <mxGeometry x="30" y="54" width="230" height="210" as="geometry" />
        </mxCell>
        <mxCell id="9Z6j10TDqMImTO2T-C6I-3" style="edgeStyle=orthogonalEdgeStyle;rounded=0;orthogonalLoop=1;jettySize=auto;html=1;exitX=1;exitY=0.5;exitDx=0;exitDy=0;exitPerimeter=0;entryX=0;entryY=0.5;entryDx=0;entryDy=0;endArrow=block;endFill=1;strokeColor=#666666;" edge="1" parent="9Z6j10TDqMImTO2T-C6I-1" source="9Z6j10TDqMImTO2T-C6I-4" target="9Z6j10TDqMImTO2T-C6I-5">
          <mxGeometry relative="1" as="geometry" />
        </mxCell>
        <mxCell id="9Z6j10TDqMImTO2T-C6I-4" value="&lt;div&gt;TDengine&amp;nbsp;&lt;/div&gt;&lt;div&gt;Database&lt;/div&gt;" style="shape=cylinder3;whiteSpace=wrap;html=1;boundedLbl=1;backgroundOutline=1;size=11.33331298828125;fillColor=#fff2cc;strokeColor=#d6b656;fontFamily=Ubuntu;fontSource=https%3A%2F%2Ffonts.googleapis.com%2Fcss%3Ffamily%3DUbuntu;" vertex="1" parent="9Z6j10TDqMImTO2T-C6I-1">
          <mxGeometry x="50" y="104" width="80" height="140" as="geometry" />
        </mxCell>
        <mxCell id="9Z6j10TDqMImTO2T-C6I-5" value="&lt;div&gt;taos adapter&lt;/div&gt;&lt;div&gt;--&lt;/div&gt;&lt;div&gt;websocket APIs&lt;/div&gt;" style="rounded=0;whiteSpace=wrap;html=1;fontFamily=Ubuntu;fontSource=https%3A%2F%2Ffonts.googleapis.com%2Fcss%3Ffamily%3DUbuntu;fillColor=#e1d5e7;strokeColor=#9673a6;" vertex="1" parent="9Z6j10TDqMImTO2T-C6I-1">
          <mxGeometry x="160" y="104" width="80" height="140" as="geometry" />
        </mxCell>
        <mxCell id="9Z6j10TDqMImTO2T-C6I-6" value="&lt;div&gt;Pserspective Node&lt;/div&gt;&lt;div&gt;Websocket Server&lt;/div&gt;" style="rounded=0;whiteSpace=wrap;html=1;fontFamily=Ubuntu;fontSource=https%3A%2F%2Ffonts.googleapis.com%2Fcss%3Ffamily%3DUbuntu;verticalAlign=top;" vertex="1" parent="9Z6j10TDqMImTO2T-C6I-1">
          <mxGeometry x="330" y="54" width="230" height="210" as="geometry" />
        </mxCell>
        <mxCell id="9Z6j10TDqMImTO2T-C6I-7" value="Node" style="rounded=0;whiteSpace=wrap;html=1;fontFamily=Ubuntu;fontSource=https%3A%2F%2Ffonts.googleapis.com%2Fcss%3Ffamily%3DUbuntu;fillColor=#e1d5e7;strokeColor=#9673a6;" vertex="1" parent="9Z6j10TDqMImTO2T-C6I-1">
          <mxGeometry x="340" y="214" width="210" height="35" as="geometry" />
        </mxCell>
        <mxCell id="9Z6j10TDqMImTO2T-C6I-8" value="Perspective Websocket" style="rounded=0;whiteSpace=wrap;html=1;fontFamily=Ubuntu;fontSource=https%3A%2F%2Ffonts.googleapis.com%2Fcss%3Ffamily%3DUbuntu;fillColor=#e1d5e7;strokeColor=#9673a6;" vertex="1" parent="9Z6j10TDqMImTO2T-C6I-1">
          <mxGeometry x="340" y="169" width="210" height="35" as="geometry" />
        </mxCell>
        <mxCell id="9Z6j10TDqMImTO2T-C6I-9" value="Perspective real-time Table" style="rounded=0;whiteSpace=wrap;html=1;fontFamily=Ubuntu;fontSource=https%3A%2F%2Ffonts.googleapis.com%2Fcss%3Ffamily%3DUbuntu;fillColor=#e1d5e7;strokeColor=#9673a6;" vertex="1" parent="9Z6j10TDqMImTO2T-C6I-1">
          <mxGeometry x="340" y="124" width="210" height="35" as="geometry" />
        </mxCell>
        <mxCell id="9Z6j10TDqMImTO2T-C6I-10" value="&lt;div&gt;Client&lt;/div&gt;&lt;div&gt;Browser&lt;/div&gt;" style="rounded=0;whiteSpace=wrap;html=1;fontFamily=Ubuntu;fontSource=https%3A%2F%2Ffonts.googleapis.com%2Fcss%3Ffamily%3DUbuntu;verticalAlign=top;" vertex="1" parent="9Z6j10TDqMImTO2T-C6I-1">
          <mxGeometry x="630" y="54" width="190" height="210" as="geometry" />
        </mxCell>
        <mxCell id="9Z6j10TDqMImTO2T-C6I-11" value="HTML Page" style="rounded=0;whiteSpace=wrap;html=1;fontFamily=Ubuntu;fontSource=https%3A%2F%2Ffonts.googleapis.com%2Fcss%3Ffamily%3DUbuntu;fillColor=#fff2cc;strokeColor=#d6b656;verticalAlign=top;" vertex="1" parent="9Z6j10TDqMImTO2T-C6I-1">
          <mxGeometry x="640" y="114" width="170" height="140" as="geometry" />
        </mxCell>
        <mxCell id="9Z6j10TDqMImTO2T-C6I-12" value="&amp;lt;perspective-viewer&amp;gt;" style="rounded=0;whiteSpace=wrap;html=1;fontFamily=Ubuntu;fontSource=https%3A%2F%2Ffonts.googleapis.com%2Fcss%3Ffamily%3DUbuntu;fillColor=#e1d5e7;strokeColor=#9673a6;" vertex="1" parent="9Z6j10TDqMImTO2T-C6I-1">
          <mxGeometry x="650" y="169" width="150" height="35" as="geometry" />
        </mxCell>
        <mxCell id="9Z6j10TDqMImTO2T-C6I-13" value="" style="image;points=[];aspect=fixed;html=1;align=center;shadow=0;dashed=0;image=img/lib/allied_telesis/computer_and_terminals/Personal_Computer_with_Server.svg;" vertex="1" parent="9Z6j10TDqMImTO2T-C6I-1">
          <mxGeometry x="780" y="40" width="54" height="54" as="geometry" />
        </mxCell>
        <mxCell id="9Z6j10TDqMImTO2T-C6I-14" value="" style="html=1;shadow=0;dashed=0;align=center;verticalAlign=middle;shape=mxgraph.arrows2.arrow;dy=0.26;dx=17.33;notch=0;fillColor=#dae8fc;strokeColor=#6c8ebf;" vertex="1" parent="9Z6j10TDqMImTO2T-C6I-1">
          <mxGeometry x="270" y="124" width="50" height="70" as="geometry" />
        </mxCell>
        <mxCell id="9Z6j10TDqMImTO2T-C6I-15" value="" style="html=1;shadow=0;dashed=0;align=center;verticalAlign=middle;shape=mxgraph.arrows2.arrow;dy=0.26;dx=17.33;notch=0;fillColor=#dae8fc;strokeColor=#6c8ebf;" vertex="1" parent="9Z6j10TDqMImTO2T-C6I-1">
          <mxGeometry x="570" y="119" width="50" height="70" as="geometry" />
        </mxCell>
        <mxCell id="9Z6j10TDqMImTO2T-C6I-16" value="" style="image;points=[];aspect=fixed;html=1;align=center;shadow=0;dashed=0;image=img/lib/allied_telesis/computer_and_terminals/Server_Desktop.svg;" vertex="1" parent="9Z6j10TDqMImTO2T-C6I-1">
          <mxGeometry x="227.4" y="40" width="42.599999999999994" height="54" as="geometry" />
        </mxCell>
        <mxCell id="9Z6j10TDqMImTO2T-C6I-17" value="" style="image;points=[];aspect=fixed;html=1;align=center;shadow=0;dashed=0;image=img/lib/allied_telesis/computer_and_terminals/Server_Desktop.svg;" vertex="1" parent="9Z6j10TDqMImTO2T-C6I-1">
          <mxGeometry x="527.4" y="40" width="42.599999999999994" height="54" as="geometry" />
        </mxCell>
        <mxCell id="9Z6j10TDqMImTO2T-C6I-18" value="node src/server.js" style="text;html=1;align=left;verticalAlign=middle;whiteSpace=wrap;rounded=0;fontFamily=Ubuntu;fontSource=https%3A%2F%2Ffonts.googleapis.com%2Fcss%3Ffamily%3DUbuntu;" vertex="1" parent="9Z6j10TDqMImTO2T-C6I-1">
          <mxGeometry x="330" y="264" width="190" height="30" as="geometry" />
        </mxCell>
        <mxCell id="9Z6j10TDqMImTO2T-C6I-19" value="chrome: index.html" style="text;html=1;align=left;verticalAlign=middle;whiteSpace=wrap;rounded=0;fontFamily=Ubuntu;fontSource=https%3A%2F%2Ffonts.googleapis.com%2Fcss%3Ffamily%3DUbuntu;" vertex="1" parent="9Z6j10TDqMImTO2T-C6I-1">
          <mxGeometry x="630" y="264" width="190" height="30" as="geometry" />
        </mxCell>
      </root>
    </mxGraphModel>
  </diagram>
  <diagram name="python" id="6cXk0QarSE0M4naugFoi">
    <mxGraphModel dx="1298" dy="1133" grid="1" gridSize="10" guides="1" tooltips="1" connect="1" arrows="1" fold="1" page="1" pageScale="1" pageWidth="1100" pageHeight="850" math="0" shadow="0">
      <root>
        <mxCell id="Ne_f5schrmnhpvk4-lwi-0" />
        <mxCell id="Ne_f5schrmnhpvk4-lwi-1" parent="Ne_f5schrmnhpvk4-lwi-0" />
        <mxCell id="Ne_f5schrmnhpvk4-lwi-2" value="&lt;div&gt;&lt;br&gt;&lt;/div&gt;&lt;div&gt;TDengine&lt;/div&gt;" style="rounded=0;whiteSpace=wrap;html=1;fontFamily=Ubuntu;fontSource=https%3A%2F%2Ffonts.googleapis.com%2Fcss%3Ffamily%3DUbuntu;verticalAlign=top;" vertex="1" parent="Ne_f5schrmnhpvk4-lwi-1">
          <mxGeometry x="30" y="54" width="230" height="210" as="geometry" />
        </mxCell>
        <mxCell id="Ne_f5schrmnhpvk4-lwi-3" style="edgeStyle=orthogonalEdgeStyle;rounded=0;orthogonalLoop=1;jettySize=auto;html=1;exitX=1;exitY=0.5;exitDx=0;exitDy=0;exitPerimeter=0;entryX=0;entryY=0.5;entryDx=0;entryDy=0;endArrow=block;endFill=1;strokeColor=#666666;" edge="1" parent="Ne_f5schrmnhpvk4-lwi-1" source="Ne_f5schrmnhpvk4-lwi-4" target="Ne_f5schrmnhpvk4-lwi-5">
          <mxGeometry relative="1" as="geometry" />
        </mxCell>
        <mxCell id="Ne_f5schrmnhpvk4-lwi-4" value="&lt;div&gt;TDengine&amp;nbsp;&lt;/div&gt;&lt;div&gt;Database&lt;/div&gt;" style="shape=cylinder3;whiteSpace=wrap;html=1;boundedLbl=1;backgroundOutline=1;size=11.33331298828125;fillColor=#fff2cc;strokeColor=#d6b656;fontFamily=Ubuntu;fontSource=https%3A%2F%2Ffonts.googleapis.com%2Fcss%3Ffamily%3DUbuntu;" vertex="1" parent="Ne_f5schrmnhpvk4-lwi-1">
          <mxGeometry x="50" y="104" width="80" height="140" as="geometry" />
        </mxCell>
        <mxCell id="Ne_f5schrmnhpvk4-lwi-5" value="&lt;div&gt;taos adapter&lt;/div&gt;" style="rounded=0;whiteSpace=wrap;html=1;fontFamily=Ubuntu;fontSource=https%3A%2F%2Ffonts.googleapis.com%2Fcss%3Ffamily%3DUbuntu;fillColor=#e1d5e7;strokeColor=#9673a6;" vertex="1" parent="Ne_f5schrmnhpvk4-lwi-1">
          <mxGeometry x="160" y="104" width="80" height="140" as="geometry" />
        </mxCell>
        <mxCell id="Ne_f5schrmnhpvk4-lwi-6" value="&lt;div&gt;Pserspective Python&lt;/div&gt;&lt;div&gt;Websocket Server&lt;/div&gt;" style="rounded=0;whiteSpace=wrap;html=1;fontFamily=Ubuntu;fontSource=https%3A%2F%2Ffonts.googleapis.com%2Fcss%3Ffamily%3DUbuntu;verticalAlign=top;" vertex="1" parent="Ne_f5schrmnhpvk4-lwi-1">
          <mxGeometry x="330" y="54" width="230" height="210" as="geometry" />
        </mxCell>
        <mxCell id="Ne_f5schrmnhpvk4-lwi-7" value="Tornado Server" style="rounded=0;whiteSpace=wrap;html=1;fontFamily=Ubuntu;fontSource=https%3A%2F%2Ffonts.googleapis.com%2Fcss%3Ffamily%3DUbuntu;fillColor=#e1d5e7;strokeColor=#9673a6;" vertex="1" parent="Ne_f5schrmnhpvk4-lwi-1">
          <mxGeometry x="340" y="214" width="210" height="35" as="geometry" />
        </mxCell>
        <mxCell id="Ne_f5schrmnhpvk4-lwi-8" value="Perspective Websocket" style="rounded=0;whiteSpace=wrap;html=1;fontFamily=Ubuntu;fontSource=https%3A%2F%2Ffonts.googleapis.com%2Fcss%3Ffamily%3DUbuntu;fillColor=#e1d5e7;strokeColor=#9673a6;" vertex="1" parent="Ne_f5schrmnhpvk4-lwi-1">
          <mxGeometry x="340" y="169" width="210" height="35" as="geometry" />
        </mxCell>
        <mxCell id="Ne_f5schrmnhpvk4-lwi-9" value="Perspective real-time Table" style="rounded=0;whiteSpace=wrap;html=1;fontFamily=Ubuntu;fontSource=https%3A%2F%2Ffonts.googleapis.com%2Fcss%3Ffamily%3DUbuntu;fillColor=#e1d5e7;strokeColor=#9673a6;" vertex="1" parent="Ne_f5schrmnhpvk4-lwi-1">
          <mxGeometry x="340" y="124" width="210" height="35" as="geometry" />
        </mxCell>
        <mxCell id="Ne_f5schrmnhpvk4-lwi-10" value="&lt;div&gt;Client&lt;/div&gt;&lt;div&gt;Browser&lt;/div&gt;" style="rounded=0;whiteSpace=wrap;html=1;fontFamily=Ubuntu;fontSource=https%3A%2F%2Ffonts.googleapis.com%2Fcss%3Ffamily%3DUbuntu;verticalAlign=top;" vertex="1" parent="Ne_f5schrmnhpvk4-lwi-1">
          <mxGeometry x="630" y="54" width="190" height="210" as="geometry" />
        </mxCell>
        <mxCell id="Ne_f5schrmnhpvk4-lwi-11" value="HTML Page" style="rounded=0;whiteSpace=wrap;html=1;fontFamily=Ubuntu;fontSource=https%3A%2F%2Ffonts.googleapis.com%2Fcss%3Ffamily%3DUbuntu;fillColor=#fff2cc;strokeColor=#d6b656;verticalAlign=top;" vertex="1" parent="Ne_f5schrmnhpvk4-lwi-1">
          <mxGeometry x="640" y="114" width="170" height="140" as="geometry" />
        </mxCell>
        <mxCell id="Ne_f5schrmnhpvk4-lwi-12" value="&amp;lt;perspective-viewer&amp;gt;" style="rounded=0;whiteSpace=wrap;html=1;fontFamily=Ubuntu;fontSource=https%3A%2F%2Ffonts.googleapis.com%2Fcss%3Ffamily%3DUbuntu;fillColor=#e1d5e7;strokeColor=#9673a6;" vertex="1" parent="Ne_f5schrmnhpvk4-lwi-1">
          <mxGeometry x="650" y="169" width="150" height="35" as="geometry" />
        </mxCell>
        <mxCell id="Ne_f5schrmnhpvk4-lwi-13" value="" style="image;points=[];aspect=fixed;html=1;align=center;shadow=0;dashed=0;image=img/lib/allied_telesis/computer_and_terminals/Personal_Computer_with_Server.svg;" vertex="1" parent="Ne_f5schrmnhpvk4-lwi-1">
          <mxGeometry x="780" y="40" width="54" height="54" as="geometry" />
        </mxCell>
        <mxCell id="Ne_f5schrmnhpvk4-lwi-14" value="" style="html=1;shadow=0;dashed=0;align=center;verticalAlign=middle;shape=mxgraph.arrows2.arrow;dy=0.26;dx=17.33;notch=0;fillColor=#dae8fc;strokeColor=#6c8ebf;" vertex="1" parent="Ne_f5schrmnhpvk4-lwi-1">
          <mxGeometry x="270" y="124" width="50" height="70" as="geometry" />
        </mxCell>
        <mxCell id="Ne_f5schrmnhpvk4-lwi-15" value="" style="html=1;shadow=0;dashed=0;align=center;verticalAlign=middle;shape=mxgraph.arrows2.arrow;dy=0.26;dx=17.33;notch=0;fillColor=#dae8fc;strokeColor=#6c8ebf;" vertex="1" parent="Ne_f5schrmnhpvk4-lwi-1">
          <mxGeometry x="570" y="119" width="50" height="70" as="geometry" />
        </mxCell>
        <mxCell id="Ne_f5schrmnhpvk4-lwi-16" value="" style="image;points=[];aspect=fixed;html=1;align=center;shadow=0;dashed=0;image=img/lib/allied_telesis/computer_and_terminals/Server_Desktop.svg;" vertex="1" parent="Ne_f5schrmnhpvk4-lwi-1">
          <mxGeometry x="227.4" y="40" width="42.599999999999994" height="54" as="geometry" />
        </mxCell>
        <mxCell id="Ne_f5schrmnhpvk4-lwi-17" value="" style="image;points=[];aspect=fixed;html=1;align=center;shadow=0;dashed=0;image=img/lib/allied_telesis/computer_and_terminals/Server_Desktop.svg;" vertex="1" parent="Ne_f5schrmnhpvk4-lwi-1">
          <mxGeometry x="529" y="40" width="42.599999999999994" height="54" as="geometry" />
        </mxCell>
        <mxCell id="Ne_f5schrmnhpvk4-lwi-19" value="python server.py" style="text;html=1;align=left;verticalAlign=middle;whiteSpace=wrap;rounded=0;fontFamily=Ubuntu;fontSource=https%3A%2F%2Ffonts.googleapis.com%2Fcss%3Ffamily%3DUbuntu;" vertex="1" parent="Ne_f5schrmnhpvk4-lwi-1">
          <mxGeometry x="330" y="264" width="190" height="30" as="geometry" />
        </mxCell>
        <mxCell id="Ne_f5schrmnhpvk4-lwi-20" value="chrome: index.html" style="text;html=1;align=left;verticalAlign=middle;whiteSpace=wrap;rounded=0;fontFamily=Ubuntu;fontSource=https%3A%2F%2Ffonts.googleapis.com%2Fcss%3Ffamily%3DUbuntu;" vertex="1" parent="Ne_f5schrmnhpvk4-lwi-1">
          <mxGeometry x="630" y="264" width="190" height="30" as="geometry" />
        </mxCell>
      </root>
    </mxGraphModel>
  </diagram>
  <diagram name="node producer" id="t4yKkUKDXdBHHCIQpVuo">
    <mxGraphModel dx="1298" dy="1133" grid="1" gridSize="10" guides="1" tooltips="1" connect="1" arrows="1" fold="1" page="1" pageScale="1" pageWidth="1100" pageHeight="850" math="0" shadow="0">
      <root>
        <mxCell id="FnHWaOubG8meHujnA2q0-0" />
        <mxCell id="FnHWaOubG8meHujnA2q0-1" parent="FnHWaOubG8meHujnA2q0-0" />
        <mxCell id="FnHWaOubG8meHujnA2q0-2" value="&lt;div&gt;&lt;br&gt;&lt;/div&gt;&lt;div&gt;TDengine&lt;/div&gt;" style="rounded=0;whiteSpace=wrap;html=1;fontFamily=Ubuntu;fontSource=https%3A%2F%2Ffonts.googleapis.com%2Fcss%3Ffamily%3DUbuntu;verticalAlign=top;" vertex="1" parent="FnHWaOubG8meHujnA2q0-1">
          <mxGeometry x="30" y="54" width="230" height="210" as="geometry" />
        </mxCell>
        <mxCell id="FnHWaOubG8meHujnA2q0-3" style="edgeStyle=orthogonalEdgeStyle;rounded=0;orthogonalLoop=1;jettySize=auto;html=1;exitX=1;exitY=0.5;exitDx=0;exitDy=0;exitPerimeter=0;entryX=0;entryY=0.5;entryDx=0;entryDy=0;endArrow=block;endFill=1;strokeColor=#666666;" edge="1" parent="FnHWaOubG8meHujnA2q0-1" source="FnHWaOubG8meHujnA2q0-4" target="FnHWaOubG8meHujnA2q0-5">
          <mxGeometry relative="1" as="geometry" />
        </mxCell>
        <mxCell id="FnHWaOubG8meHujnA2q0-4" value="&lt;div&gt;TDengine&amp;nbsp;&lt;/div&gt;&lt;div&gt;Database&lt;/div&gt;" style="shape=cylinder3;whiteSpace=wrap;html=1;boundedLbl=1;backgroundOutline=1;size=11.33331298828125;fillColor=#fff2cc;strokeColor=#d6b656;fontFamily=Ubuntu;fontSource=https%3A%2F%2Ffonts.googleapis.com%2Fcss%3Ffamily%3DUbuntu;" vertex="1" parent="FnHWaOubG8meHujnA2q0-1">
          <mxGeometry x="50" y="104" width="80" height="140" as="geometry" />
        </mxCell>
        <mxCell id="FnHWaOubG8meHujnA2q0-5" value="&lt;div&gt;taos adapter&lt;/div&gt;&lt;div&gt;--&lt;/div&gt;&lt;div&gt;websocket APIs&lt;/div&gt;" style="rounded=0;whiteSpace=wrap;html=1;fontFamily=Ubuntu;fontSource=https%3A%2F%2Ffonts.googleapis.com%2Fcss%3Ffamily%3DUbuntu;fillColor=#e1d5e7;strokeColor=#9673a6;" vertex="1" parent="FnHWaOubG8meHujnA2q0-1">
          <mxGeometry x="160" y="104" width="80" height="140" as="geometry" />
        </mxCell>
        <mxCell id="FnHWaOubG8meHujnA2q0-6" value="&lt;br&gt;&lt;div&gt;producer.js&lt;/div&gt;" style="rounded=0;whiteSpace=wrap;html=1;fontFamily=Ubuntu;fontSource=https%3A%2F%2Ffonts.googleapis.com%2Fcss%3Ffamily%3DUbuntu;verticalAlign=top;" vertex="1" parent="FnHWaOubG8meHujnA2q0-1">
          <mxGeometry x="330" y="54" width="180" height="210" as="geometry" />
        </mxCell>
        <mxCell id="FnHWaOubG8meHujnA2q0-7" value="generate meters data" style="rounded=0;whiteSpace=wrap;html=1;fontFamily=Ubuntu;fontSource=https%3A%2F%2Ffonts.googleapis.com%2Fcss%3Ffamily%3DUbuntu;fillColor=#e1d5e7;strokeColor=#9673a6;" vertex="1" parent="FnHWaOubG8meHujnA2q0-1">
          <mxGeometry x="340" y="214" width="160" height="35" as="geometry" />
        </mxCell>
        <mxCell id="FnHWaOubG8meHujnA2q0-8" value="Insert into TDengine" style="rounded=0;whiteSpace=wrap;html=1;fontFamily=Ubuntu;fontSource=https%3A%2F%2Ffonts.googleapis.com%2Fcss%3Ffamily%3DUbuntu;fillColor=#e1d5e7;strokeColor=#9673a6;" vertex="1" parent="FnHWaOubG8meHujnA2q0-1">
          <mxGeometry x="340" y="169" width="160" height="35" as="geometry" />
        </mxCell>
        <mxCell id="FnHWaOubG8meHujnA2q0-14" value="" style="html=1;shadow=0;dashed=0;align=center;verticalAlign=middle;shape=mxgraph.arrows2.arrow;dy=0.26;dx=17.33;notch=0;fillColor=#dae8fc;strokeColor=#6c8ebf;rotation=-180;" vertex="1" parent="FnHWaOubG8meHujnA2q0-1">
          <mxGeometry x="270" y="124" width="50" height="70" as="geometry" />
        </mxCell>
        <mxCell id="FnHWaOubG8meHujnA2q0-16" value="" style="image;points=[];aspect=fixed;html=1;align=center;shadow=0;dashed=0;image=img/lib/allied_telesis/computer_and_terminals/Server_Desktop.svg;" vertex="1" parent="FnHWaOubG8meHujnA2q0-1">
          <mxGeometry x="227.4" y="40" width="42.599999999999994" height="54" as="geometry" />
        </mxCell>
        <mxCell id="FnHWaOubG8meHujnA2q0-17" value="" style="image;points=[];aspect=fixed;html=1;align=center;shadow=0;dashed=0;image=img/lib/allied_telesis/computer_and_terminals/Server_Desktop.svg;" vertex="1" parent="FnHWaOubG8meHujnA2q0-1">
          <mxGeometry x="477.4" y="40" width="42.599999999999994" height="54" as="geometry" />
        </mxCell>
        <mxCell id="FnHWaOubG8meHujnA2q0-18" value="&lt;div&gt;node src/producer.js&lt;/div&gt;" style="text;html=1;align=left;verticalAlign=middle;whiteSpace=wrap;rounded=0;fontFamily=Ubuntu;fontSource=https%3A%2F%2Ffonts.googleapis.com%2Fcss%3Ffamily%3DUbuntu;" vertex="1" parent="FnHWaOubG8meHujnA2q0-1">
          <mxGeometry x="330" y="264" width="190" height="30" as="geometry" />
        </mxCell>
      </root>
    </mxGraphModel>
  </diagram>
  <diagram name="python producer" id="_nezLuvw4tjSZ02BZE6T">
    <mxGraphModel dx="1298" dy="1133" grid="1" gridSize="10" guides="1" tooltips="1" connect="1" arrows="1" fold="1" page="1" pageScale="1" pageWidth="1100" pageHeight="850" math="0" shadow="0">
      <root>
        <mxCell id="AeGVVFo0T7421NXW-EZS-0" />
        <mxCell id="AeGVVFo0T7421NXW-EZS-1" parent="AeGVVFo0T7421NXW-EZS-0" />
        <mxCell id="AeGVVFo0T7421NXW-EZS-2" value="&lt;div&gt;&lt;br&gt;&lt;/div&gt;&lt;div&gt;TDengine&lt;/div&gt;" style="rounded=0;whiteSpace=wrap;html=1;fontFamily=Ubuntu;fontSource=https%3A%2F%2Ffonts.googleapis.com%2Fcss%3Ffamily%3DUbuntu;verticalAlign=top;" parent="AeGVVFo0T7421NXW-EZS-1" vertex="1">
          <mxGeometry x="30" y="54" width="230" height="210" as="geometry" />
        </mxCell>
        <mxCell id="AeGVVFo0T7421NXW-EZS-3" style="edgeStyle=orthogonalEdgeStyle;rounded=0;orthogonalLoop=1;jettySize=auto;html=1;exitX=1;exitY=0.5;exitDx=0;exitDy=0;exitPerimeter=0;entryX=0;entryY=0.5;entryDx=0;entryDy=0;endArrow=block;endFill=1;strokeColor=#666666;" parent="AeGVVFo0T7421NXW-EZS-1" source="AeGVVFo0T7421NXW-EZS-4" target="AeGVVFo0T7421NXW-EZS-5" edge="1">
          <mxGeometry relative="1" as="geometry" />
        </mxCell>
        <mxCell id="AeGVVFo0T7421NXW-EZS-4" value="&lt;div&gt;TDengine&amp;nbsp;&lt;/div&gt;&lt;div&gt;Database&lt;/div&gt;" style="shape=cylinder3;whiteSpace=wrap;html=1;boundedLbl=1;backgroundOutline=1;size=11.33331298828125;fillColor=#fff2cc;strokeColor=#d6b656;fontFamily=Ubuntu;fontSource=https%3A%2F%2Ffonts.googleapis.com%2Fcss%3Ffamily%3DUbuntu;" parent="AeGVVFo0T7421NXW-EZS-1" vertex="1">
          <mxGeometry x="50" y="104" width="80" height="140" as="geometry" />
        </mxCell>
        <mxCell id="AeGVVFo0T7421NXW-EZS-5" value="&lt;div&gt;taos adapter&lt;/div&gt;&lt;div&gt;--&lt;/div&gt;&lt;div&gt;websocket APIs&lt;/div&gt;" style="rounded=0;whiteSpace=wrap;html=1;fontFamily=Ubuntu;fontSource=https%3A%2F%2Ffonts.googleapis.com%2Fcss%3Ffamily%3DUbuntu;fillColor=#e1d5e7;strokeColor=#9673a6;" parent="AeGVVFo0T7421NXW-EZS-1" vertex="1">
          <mxGeometry x="160" y="104" width="80" height="140" as="geometry" />
        </mxCell>
        <mxCell id="AeGVVFo0T7421NXW-EZS-6" value="&lt;br&gt;&lt;div&gt;producer.py&lt;/div&gt;" style="rounded=0;whiteSpace=wrap;html=1;fontFamily=Ubuntu;fontSource=https%3A%2F%2Ffonts.googleapis.com%2Fcss%3Ffamily%3DUbuntu;verticalAlign=top;" parent="AeGVVFo0T7421NXW-EZS-1" vertex="1">
          <mxGeometry x="330" y="54" width="180" height="210" as="geometry" />
        </mxCell>
        <mxCell id="AeGVVFo0T7421NXW-EZS-7" value="generate meters data" style="rounded=0;whiteSpace=wrap;html=1;fontFamily=Ubuntu;fontSource=https%3A%2F%2Ffonts.googleapis.com%2Fcss%3Ffamily%3DUbuntu;fillColor=#e1d5e7;strokeColor=#9673a6;" parent="AeGVVFo0T7421NXW-EZS-1" vertex="1">
          <mxGeometry x="340" y="214" width="160" height="35" as="geometry" />
        </mxCell>
        <mxCell id="AeGVVFo0T7421NXW-EZS-8" value="Insert into TDengine" style="rounded=0;whiteSpace=wrap;html=1;fontFamily=Ubuntu;fontSource=https%3A%2F%2Ffonts.googleapis.com%2Fcss%3Ffamily%3DUbuntu;fillColor=#e1d5e7;strokeColor=#9673a6;" parent="AeGVVFo0T7421NXW-EZS-1" vertex="1">
          <mxGeometry x="340" y="169" width="160" height="35" as="geometry" />
        </mxCell>
        <mxCell id="AeGVVFo0T7421NXW-EZS-9" value="" style="html=1;shadow=0;dashed=0;align=center;verticalAlign=middle;shape=mxgraph.arrows2.arrow;dy=0.26;dx=17.33;notch=0;fillColor=#dae8fc;strokeColor=#6c8ebf;rotation=-180;" parent="AeGVVFo0T7421NXW-EZS-1" vertex="1">
          <mxGeometry x="270" y="124" width="50" height="70" as="geometry" />
        </mxCell>
        <mxCell id="AeGVVFo0T7421NXW-EZS-10" value="" style="image;points=[];aspect=fixed;html=1;align=center;shadow=0;dashed=0;image=img/lib/allied_telesis/computer_and_terminals/Server_Desktop.svg;" parent="AeGVVFo0T7421NXW-EZS-1" vertex="1">
          <mxGeometry x="227.4" y="40" width="42.599999999999994" height="54" as="geometry" />
        </mxCell>
        <mxCell id="AeGVVFo0T7421NXW-EZS-11" value="" style="image;points=[];aspect=fixed;html=1;align=center;shadow=0;dashed=0;image=img/lib/allied_telesis/computer_and_terminals/Server_Desktop.svg;" parent="AeGVVFo0T7421NXW-EZS-1" vertex="1">
          <mxGeometry x="477.4" y="40" width="42.599999999999994" height="54" as="geometry" />
        </mxCell>
        <mxCell id="AeGVVFo0T7421NXW-EZS-12" value="&lt;div&gt;python producer.py&lt;/div&gt;" style="text;html=1;align=left;verticalAlign=middle;whiteSpace=wrap;rounded=0;fontFamily=Ubuntu;fontSource=https%3A%2F%2Ffonts.googleapis.com%2Fcss%3Ffamily%3DUbuntu;" parent="AeGVVFo0T7421NXW-EZS-1" vertex="1">
          <mxGeometry x="330" y="264" width="190" height="30" as="geometry" />
        </mxCell>
      </root>
    </mxGraphModel>
  </diagram>
</mxfile>
